<!DOCTYPE svg PUBLIC "-//W3C//DTD SVG 20010904//EN" "http://www.w3.org/TR/2001/REC-SVG-20010904/DTD/svg10.dtd">
<svg version="1.0" xmlns="http://www.w3.org/2000/svg" width="507px" height="89px" viewBox="0 0 5070 890" preserveAspectRatio="xMidYMid meet">
<g id="layer101" fill="#3e3e40" stroke="none">
 <path d="M3712 859 c-72 -36 -122 -113 -122 -189 0 -88 69 -179 154 -202 37 -10 48 -17 52 -38 22 -103 100 -195 188 -220 44 -12 147 -10 193 5 18 6 25 0 42 -34 30 -58 85 -109 150 -140 46 -21 70 -26 131 -25 97 1 163 28 225 95 55 59 81 113 90 191 l7 57 52 15 c75 22 139 81 166 154 48 126 -4 260 -125 325 -39 21 -53 22 -414 25 -303 2 -373 0 -369 -10 3 -7 15 -44 28 -83 12 -38 26 -74 30 -78 4 -5 14 7 21 27 l13 36 81 -2 80 -2 -77 -3 c-71 -4 -76 -6 -82 -28 -3 -13 -12 -30 -19 -37 -7 -7 -30 -53 -52 -103 -21 -49 -42 -94 -46 -98 -4 -5 -36 78 -71 185 l-65 193 -109 3 c-95 2 -115 -1 -152 -19z m759 -299 l83 -190 33 0 c18 0 33 -4 33 -9 0 -5 -16 -43 -35 -86 l-35 -77 -24 19 c-13 10 -60 45 -105 78 -44 33 -80 63 -81 68 0 4 11 7 25 7 14 0 25 3 25 8 1 14 -74 182 -81 182 -3 0 -14 -20 -23 -45 l-18 -45 -81 2 -82 2 77 3 77 4 17 44 c9 25 20 45 24 45 4 0 15 21 25 48 25 63 55 132 59 132 2 0 41 -85 87 -190z"/>
 <path d="M83 670 c-67 -30 -73 -50 -73 -263 0 -175 1 -186 23 -218 13 -19 39 -40 61 -48 52 -20 111 0 143 48 26 39 31 96 8 105 -23 8 -45 -4 -45 -26 0 -23 -43 -68 -65 -68 -9 0 -27 11 -40 25 -24 24 -25 28 -25 182 0 181 7 203 64 203 37 0 54 -15 65 -57 6 -21 14 -28 32 -28 20 0 25 6 27 32 9 89 -89 152 -175 113z"/>
 <path d="M436 680 c-41 -13 -84 -58 -96 -99 -5 -20 -10 -122 -10 -227 0 -150 3 -194 14 -210 12 -15 18 -17 33 -8 16 10 18 33 23 228 5 201 7 219 24 232 33 23 82 18 105 -12 20 -25 21 -39 21 -229 0 -211 5 -234 43 -219 25 9 29 57 26 261 -4 175 -6 190 -26 219 -41 57 -100 81 -157 64z"/>
 <path d="M1434 676 c-18 -14 -19 -29 -19 -271 0 -216 2 -257 15 -265 8 -5 61 -10 116 -10 81 0 104 3 115 16 9 11 10 20 2 32 -8 13 -30 18 -94 22 l-84 5 0 80 0 80 64 5 c45 4 67 10 74 22 19 29 -8 47 -76 50 l-62 3 -3 79 c-2 57 1 82 10 87 7 5 47 9 89 9 61 0 78 3 83 16 8 21 8 20 -10 38 -21 22 -191 23 -220 2z"/>
 <path d="M1802 670 c-69 -31 -82 -71 -82 -255 0 -82 5 -167 10 -187 21 -73 104 -113 173 -84 61 25 99 115 62 146 -22 18 -42 6 -50 -30 -8 -36 -45 -64 -74 -55 -48 15 -51 27 -51 198 0 186 7 207 64 207 37 0 49 -10 63 -55 7 -22 16 -30 34 -30 51 0 29 103 -29 137 -46 26 -75 28 -120 8z"/>
 <path d="M2066 674 c-23 -22 -24 -500 -2 -530 12 -15 18 -17 33 -8 16 10 18 32 21 242 3 263 -6 239 92 244 35 2 46 7 49 22 6 32 -26 46 -105 46 -53 0 -77 -4 -88 -16z"/>
 <path d="M2400 680 c-20 -5 -48 -23 -66 -43 -40 -43 -48 -96 -42 -275 4 -148 17 -180 83 -212 51 -25 69 -25 123 0 34 15 47 29 63 65 18 41 20 63 17 210 -3 147 -5 166 -24 191 -42 57 -92 78 -154 64z m90 -90 c18 -18 20 -33 20 -179 0 -140 -2 -161 -19 -182 -26 -32 -86 -32 -112 0 -17 20 -19 42 -19 179 0 146 1 157 22 179 27 29 80 31 108 3z"/>
 <path d="M2755 674 c-22 -7 -41 -14 -42 -14 -1 0 -14 -17 -28 -37 -25 -37 -25 -39 -25 -254 0 -226 4 -248 43 -233 14 5 16 36 19 219 3 193 5 215 22 234 26 29 86 29 112 0 19 -22 21 -49 24 -380 0 -52 4 -68 16 -73 40 -15 44 7 44 228 0 187 -2 215 -19 246 -32 61 -101 88 -166 64z"/>
 <path d="M3048 679 c-16 -9 -18 -33 -18 -267 0 -187 3 -261 12 -270 19 -19 127 -14 174 7 69 31 87 73 92 212 6 175 -2 223 -46 271 -24 26 -51 42 -77 48 -53 12 -116 12 -137 -1z m124 -69 c62 -18 68 -35 68 -202 0 -138 -1 -148 -23 -173 -27 -31 -103 -47 -118 -24 -12 20 -11 366 1 390 12 22 21 23 72 9z"/>
 <path d="M805 668 c-3 -7 -6 -114 -7 -238 l-3 -225 -55 -5 c-58 -5 -75 -25 -50 -55 18 -22 262 -22 280 0 25 30 8 50 -50 55 l-55 5 -5 235 c-5 235 -5 235 -28 238 -12 2 -24 -3 -27 -10z"/>
 <path d="M1056 664 c-3 -9 -6 -127 -6 -264 0 -208 2 -250 15 -260 24 -20 169 -8 202 16 70 52 91 130 54 202 -11 22 -25 43 -31 47 -6 4 -5 16 5 34 17 34 41 201 32 225 -7 17 -42 22 -52 7 -3 -5 -10 -47 -16 -93 -16 -113 -26 -128 -89 -128 l-50 0 0 99 c0 116 -4 131 -35 131 -13 0 -26 -7 -29 -16z m190 -315 c17 -16 24 -33 24 -61 0 -60 -46 -94 -116 -86 -29 3 -29 3 -32 82 -2 56 1 82 10 88 22 15 88 1 114 -23z"/>
 </g>
<g id="layer102" fill="#65c438" stroke="none">
 <path d="M4226 736 c-3 -14 -12 -31 -19 -38 -7 -7 -30 -53 -52 -103 -21 -49 -43 -96 -48 -102 -7 -10 8 -13 71 -13 l80 0 18 45 c9 25 20 45 24 45 4 0 15 21 25 48 10 26 28 68 41 95 l22 47 -78 0 c-74 0 -78 -1 -84 -24z"/>
 </g>

</svg>