<!DOCTYPE svg PUBLIC "-//W3C//DTD SVG 20010904//EN" "http://www.w3.org/TR/2001/REC-SVG-20010904/DTD/svg10.dtd">
<svg version="1.0" xmlns="http://www.w3.org/2000/svg" width="499px" height="314px" viewBox="0 0 4990 3140" preserveAspectRatio="xMidYMid meet">
<g id="layer101" fill="#3b3b3c" stroke="none">
<path d="M125 3116 c-39 -18 -80 -62 -99 -108 -13 -30 -16 -84 -16 -290 0 -235 1 -255 21 -295 40 -83 137 -129 221 -104 60 18 95 46 120 94 25 50 29 114 8 128 -21 13 -61 7 -71 -11 -4 -8 -11 -28 -14 -43 -16 -76 -101 -102 -156 -48 l-29 29 0 251 0 251 29 32 c53 59 142 32 157 -48 12 -62 68 -82 95 -33 15 29 -13 118 -48 151 -61 56 -149 74 -218 44z"/>
<path d="M610 3098 c-39 -24 -60 -45 -77 -78 -22 -43 -23 -54 -23 -305 -1 -419 -3 -384 24 -396 17 -8 29 -8 45 0 21 12 21 16 21 314 0 342 3 356 72 390 50 24 89 15 128 -29 l30 -35 0 -304 c0 -292 1 -306 20 -325 25 -25 42 -25 63 -2 15 16 17 53 17 318 0 178 -4 314 -11 337 -23 83 -111 146 -204 147 -40 0 -63 -7 -105 -32z"/>
<path d="M1222 3118 c-9 -9 -12 -98 -12 -341 0 -207 -4 -335 -10 -348 -9 -16 -22 -19 -75 -19 -52 0 -69 -4 -85 -20 -25 -25 -25 -35 0 -60 19 -19 33 -20 211 -20 112 0 198 4 210 10 26 14 26 66 0 80 -11 5 -49 10 -84 10 -50 0 -66 4 -71 16 -3 9 -6 165 -6 348 0 349 -1 356 -45 356 -12 0 -26 -5 -33 -12z"/>
<path d="M1602 3118 c-9 -9 -12 -111 -12 -400 0 -451 -13 -408 128 -408 152 0 229 37 276 132 41 83 33 166 -25 240 -34 44 -35 52 -10 109 11 24 27 103 37 176 20 149 16 166 -40 161 -27 -3 -33 -9 -43 -43 -6 -22 -17 -87 -24 -144 -10 -89 -15 -108 -38 -134 -25 -27 -34 -30 -89 -31 -46 -1 -65 3 -72 14 -5 8 -10 83 -10 166 0 157 -4 174 -45 174 -12 0 -26 -5 -33 -12z m237 -456 c70 -35 97 -110 65 -177 -25 -54 -65 -75 -145 -75 -61 0 -67 2 -73 23 -10 37 -7 207 4 228 14 25 101 26 149 1z"/>
<path d="M2146 3108 c-14 -19 -16 -74 -16 -390 0 -355 1 -369 20 -388 18 -18 33 -20 175 -20 142 0 157 2 175 20 11 11 20 25 20 30 0 6 -9 19 -20 30 -18 18 -33 20 -140 20 l-120 0 0 130 0 130 93 0 c78 0 97 3 110 18 22 24 21 45 -1 65 -15 13 -39 17 -111 17 l-92 0 3 133 3 132 128 5 c99 4 130 8 137 20 14 22 12 35 -8 53 -16 14 -44 17 -180 17 -155 0 -161 -1 -176 -22z"/>
<path d="M2715 3113 c-48 -25 -83 -63 -100 -107 -13 -35 -15 -84 -13 -302 l3 -261 28 -42 c59 -89 181 -114 270 -55 92 60 119 204 38 204 -34 0 -46 -13 -55 -62 -19 -105 -161 -102 -181 3 -3 19 -5 136 -3 260 3 210 4 229 23 249 47 53 121 45 149 -14 9 -19 16 -41 16 -50 0 -8 11 -23 25 -32 23 -15 27 -15 50 0 30 20 32 54 6 111 -22 47 -64 89 -104 104 -41 16 -117 13 -152 -6z"/>
<path d="M3106 3108 c-14 -19 -16 -74 -16 -390 0 -355 1 -369 20 -388 23 -23 39 -25 64 -7 15 11 17 41 17 349 -1 292 1 339 15 352 11 12 36 16 98 16 86 0 106 8 106 45 0 40 -17 45 -156 45 -126 0 -134 -1 -148 -22z"/>
<path d="M3560 3098 c-38 -23 -61 -46 -77 -77 -22 -43 -23 -52 -23 -298 0 -231 2 -257 19 -292 67 -130 235 -158 337 -56 24 25 47 59 53 81 6 23 11 137 11 274 0 259 -5 285 -66 342 -72 67 -169 77 -254 26z m156 -74 c60 -29 64 -46 64 -308 l0 -236 -28 -31 c-21 -24 -38 -32 -75 -36 -43 -5 -49 -3 -81 29 -44 44 -48 74 -44 319 3 217 9 237 71 264 42 18 52 18 93 -1z"/>
<path d="M4140 3114 c-45 -20 -87 -59 -111 -106 -18 -34 -19 -62 -19 -352 0 -273 2 -317 16 -330 19 -19 35 -20 57 -3 14 11 17 47 19 324 3 298 4 313 24 340 11 15 39 34 60 42 36 12 44 12 77 -4 66 -31 67 -38 67 -375 0 -287 1 -301 20 -320 25 -25 42 -25 63 -2 15 16 17 54 17 328 0 279 -2 313 -19 349 -48 103 -170 153 -271 109z"/>
<path d="M4582 3118 c-9 -9 -12 -111 -12 -400 0 -456 -15 -413 144 -406 114 5 163 23 211 80 52 62 55 79 55 331 0 229 0 234 -25 284 -26 51 -72 91 -128 112 -40 15 -230 14 -245 -1z m247 -107 c49 -35 52 -58 49 -304 l-3 -227 -32 -32 c-28 -27 -41 -32 -94 -36 -52 -4 -65 -2 -76 14 -10 14 -13 81 -13 300 0 329 -2 320 87 311 30 -3 66 -15 82 -26z"/>
<path d="M1250 1872 c-83 -22 -142 -57 -208 -124 -172 -173 -172 -465 0 -637 58 -58 166 -116 241 -130 27 -5 52 -13 56 -17 4 -5 13 -38 19 -74 7 -36 30 -101 52 -145 71 -146 186 -247 345 -301 69 -24 95 -28 190 -28 93 1 122 5 188 27 42 15 79 27 81 27 3 0 21 -33 41 -74 110 -222 318 -361 575 -382 132 -11 297 33 414 111 188 124 297 318 310 551 3 42 9 80 13 84 4 4 35 12 67 19 133 25 286 131 355 245 142 236 113 501 -75 693 -56 58 -88 81 -160 115 l-89 43 -794 8 c-437 4 -796 6 -798 4 -5 -6 129 -417 136 -417 4 0 22 37 42 83 l35 82 172 3 c163 2 172 1 172 -16 0 -11 80 -201 178 -423 l178 -404 77 -3 c43 -2 77 -7 77 -13 0 -13 -148 -341 -158 -351 -9 -9 -472 338 -472 353 0 5 32 9 71 9 39 0 69 4 67 9 -24 64 -185 421 -189 421 -4 0 -23 -40 -44 -89 -59 -142 -41 -131 -218 -131 -84 0 -158 4 -165 9 -8 4 -78 203 -156 442 l-142 434 -210 2 c-170 2 -221 -1 -274 -15z"/>
</g>
<g id="layer102" fill="#61c233" stroke="none">
<path d="M2265 1554 c-19 -42 -35 -80 -35 -85 0 -5 -4 -9 -10 -9 -5 0 -10 -6 -10 -13 0 -7 -40 -106 -89 -219 -70 -164 -86 -208 -74 -212 8 -3 77 -6 153 -6 162 0 146 -10 205 131 21 49 42 89 46 89 5 0 9 8 9 18 0 9 34 94 76 187 41 94 78 176 81 183 4 9 -31 12 -156 12 l-162 0 -34 -76z"/>
</g>


</svg>