<!DOCTYPE svg PUBLIC "-//W3C//DTD SVG 20010904//EN" "http://www.w3.org/TR/2001/REC-SVG-20010904/DTD/svg10.dtd">
<svg version="1.0" xmlns="http://www.w3.org/2000/svg" width="486px" height="229px" viewBox="0 0 4860 2290" preserveAspectRatio="xMidYMid meet">
<g id="layer101" fill="#000000" stroke="none">
<path d="M215 2086 c-46 -20 -55 -52 -55 -191 0 -118 1 -125 26 -154 l26 -31 149 0 149 0 0 30 0 30 -133 0 c-90 0 -137 4 -145 12 -16 16 -16 220 0 236 8 8 55 12 145 12 l133 0 0 35 0 35 -132 0 c-87 -1 -143 -5 -163 -14z"/>
<path d="M666 2090 c-70 -21 -96 -75 -96 -200 l0 -90 35 0 35 0 0 98 c0 126 5 132 113 132 l77 0 0 -115 0 -115 35 0 35 0 0 140 c0 127 -2 140 -19 150 -23 12 -174 12 -215 0z"/>
<path d="M1050 1985 l0 -115 -50 0 -50 0 0 -35 0 -35 50 0 50 0 0 -45 c0 -43 1 -45 30 -45 29 0 30 2 30 45 l0 45 65 0 65 0 0 35 0 35 -65 0 -65 0 0 115 0 115 -30 0 -30 0 0 -115z"/>
<path d="M1290 1990 c0 -60 5 -120 11 -134 18 -40 66 -56 163 -56 l86 0 0 35 0 34 -92 3 -93 3 -3 113 -3 112 -34 0 -35 0 0 -110z"/>
<path d="M1660 2089 c-54 -22 -60 -35 -60 -135 0 -84 2 -96 24 -121 24 -27 27 -28 130 -28 102 0 106 1 133 28 37 36 38 95 4 131 -23 24 -31 26 -113 26 l-88 0 0 -30 0 -30 75 0 c61 0 76 -3 84 -18 17 -33 -3 -46 -77 -50 -41 -3 -78 1 -91 8 -20 10 -22 18 -19 83 l3 72 78 3 77 3 0 34 0 35 -67 -1 c-38 0 -79 -5 -93 -10z"/>
<path d="M2033 2085 c-17 -7 -36 -22 -42 -34 -6 -11 -11 -78 -11 -156 0 -131 1 -137 25 -160 23 -24 28 -25 175 -25 l150 0 0 30 0 29 -142 3 -143 3 0 125 0 125 143 3 142 3 0 34 0 35 -132 0 c-90 -1 -143 -5 -165 -15z"/>
<path d="M2453 2085 c-17 -7 -36 -22 -42 -34 -7 -12 -11 -89 -11 -195 l0 -176 30 0 30 0 2 173 3 172 28 3 c24 3 27 8 27 38 0 39 -13 43 -67 19z"/>
<path d="M2625 2086 c-41 -18 -55 -53 -55 -137 0 -84 17 -123 61 -138 34 -12 159 -13 198 -2 38 10 62 52 68 117 7 82 -12 134 -57 156 -42 22 -170 24 -215 4z m200 -136 l0 -75 -85 -3 c-98 -3 -110 5 -110 76 0 77 8 83 108 80 l87 -3 0 -75z"/>
<path d="M3033 2081 c-60 -28 -73 -59 -73 -181 l0 -100 30 0 30 0 0 86 c0 81 10 120 34 136 6 4 46 8 89 8 l77 0 0 -115 0 -115 30 0 30 0 0 144 c0 122 -2 145 -16 150 -9 3 -55 6 -102 6 -64 0 -98 -6 -129 -19z"/>
<path d="M3413 2085 c-17 -7 -36 -22 -42 -34 -14 -26 -14 -176 0 -203 16 -30 70 -48 144 -48 l65 0 0 35 0 34 -77 3 -78 3 0 75 0 75 89 3 c65 2 92 -1 98 -10 4 -7 8 -86 8 -175 l0 -163 30 0 30 0 0 176 c0 106 -4 183 -11 196 -6 11 -26 26 -44 34 -44 18 -170 18 -212 -1z"/>
<path d="M3944 2086 c-10 -8 -15 -20 -11 -30 10 -25 38 -32 53 -12 24 33 -9 66 -42 42z"/>
<path d="M4062 2088 c-28 -28 -3 -66 33 -52 25 10 12 64 -15 64 -3 0 -11 -5 -18 -12z"/>
<path d="M4183 2093 c-18 -7 -16 -52 2 -59 18 -7 45 12 45 32 0 16 -30 33 -47 27z"/>
<path d="M4147 1883 c18 -2 50 -2 70 0 21 2 7 4 -32 4 -38 0 -55 -2 -38 -4z"/>
<path d="M4455 1813 c26 -24 88 -65 73 -47 -9 10 -32 28 -50 38 -18 10 -28 15 -23 9z"/>
<path d="M3803 1728 c-50 -51 -123 -160 -123 -182 0 -6 15 16 33 49 17 33 58 88 91 122 71 76 70 83 -1 11z"/>
<path d="M4615 1665 c40 -56 51 -66 29 -27 -10 18 -28 41 -38 50 -12 10 -8 0 9 -23z"/>
<path d="M4120 1419 c-25 -5 -122 -13 -216 -18 -115 -6 -183 -14 -208 -25 -47 -20 -44 -20 -49 2 -4 14 -5 14 -6 -3 -1 -12 -19 -31 -46 -48 -149 -94 -221 -320 -156 -490 19 -50 72 -120 148 -194 69 -69 73 -75 73 -117 0 -56 -14 -93 -48 -129 -34 -36 -73 -57 -109 -58 l-28 -1 28 -10 c21 -7 37 -6 68 6 50 20 89 21 89 1 0 -17 -38 -38 -97 -54 -50 -14 -110 -1 -157 32 l-29 21 25 -37 c73 -109 216 -147 354 -96 112 41 174 140 174 277 0 98 -17 119 -180 225 -44 28 -77 60 -102 97 -70 105 -102 285 -58 325 32 29 44 6 45 -83 1 -97 27 -156 102 -229 88 -86 129 -105 248 -114 114 -8 147 -21 193 -73 17 -20 33 -36 35 -36 3 0 10 14 17 30 12 29 44 60 62 60 16 0 7 -32 -18 -65 -24 -32 -25 -37 -15 -86 11 -51 26 -79 41 -79 4 0 15 20 24 45 14 35 31 54 79 88 47 32 71 58 99 107 50 86 56 122 29 149 -14 14 -34 21 -58 21 l-38 0 33 21 c17 12 32 23 32 26 0 5 -14 -3 -52 -29 -14 -10 -41 -18 -60 -18 -19 0 -39 -5 -45 -11 -6 -6 -21 -9 -34 -7 -33 4 -31 36 4 62 24 18 43 21 121 21 104 0 126 10 126 56 0 29 -22 40 -36 18 -11 -18 -69 -3 -145 36 -112 58 -196 60 -219 5 -17 -41 -71 -86 -137 -116 -106 -46 -131 -22 -27 27 62 29 68 35 95 93 47 100 37 211 -27 277 -34 35 -19 46 85 63 86 13 132 36 74 36 -17 0 -37 2 -45 4 -7 2 -33 0 -58 -5z m360 -699 c0 -33 -38 -80 -64 -80 -31 0 -46 13 -46 40 0 35 41 70 81 70 26 0 29 -4 29 -30z"/>
<path d="M4612 1022 c-38 -51 -39 -53 -7 -17 33 36 60 75 53 75 -2 0 -22 -26 -46 -58z"/>
</g>
<g id="layer102" fill="#c8260a" stroke="none">
<path d="M4090 1415 c-41 -8 -120 -14 -175 -14 -181 -2 -276 -30 -369 -112 -89 -78 -149 -254 -127 -372 19 -104 56 -165 168 -274 69 -69 73 -75 73 -117 0 -56 -14 -93 -48 -129 -34 -36 -73 -57 -109 -58 l-28 -1 28 -10 c21 -7 37 -6 68 6 50 20 89 21 89 1 0 -17 -38 -38 -97 -54 -50 -14 -110 -1 -157 32 l-29 21 25 -37 c73 -109 216 -147 354 -96 112 41 174 140 174 277 0 98 -17 119 -180 225 -44 28 -77 60 -102 97 -70 105 -102 285 -58 325 32 29 44 6 45 -83 1 -97 27 -156 102 -229 88 -86 129 -105 248 -114 114 -8 147 -21 193 -73 17 -20 33 -36 35 -36 3 0 10 14 17 30 12 29 44 60 62 60 16 0 7 -32 -18 -65 -24 -32 -25 -37 -15 -86 11 -51 26 -79 41 -79 4 0 15 20 24 45 14 35 31 54 79 88 47 32 71 58 99 107 50 86 56 122 29 149 -18 18 -33 21 -99 21 -43 0 -83 -5 -89 -11 -6 -6 -21 -9 -34 -7 -33 4 -31 36 4 62 24 18 43 21 121 21 104 0 126 10 126 56 0 29 -22 40 -36 18 -11 -18 -69 -3 -145 36 -112 58 -196 60 -219 5 -17 -41 -71 -86 -137 -116 -106 -46 -131 -22 -27 27 62 29 68 35 95 93 47 100 37 211 -27 277 -34 35 -19 46 85 63 86 13 132 36 74 36 -17 0 -37 2 -45 4 -7 2 -47 -2 -88 -9z m390 -695 c0 -33 -38 -80 -64 -80 -31 0 -46 13 -46 40 0 35 41 70 81 70 26 0 29 -4 29 -30z"/>
<path d="M4409 711 c-19 -16 -22 -22 -11 -32 10 -11 12 -10 12 0 0 8 6 11 15 7 19 -7 32 21 18 35 -6 6 -18 3 -34 -10z"/>
</g>


</svg>